<?xml version="1.0" encoding="UTF-8" standalone="no" ?>
<!DOCTYPE svg PUBLIC "-//W3C//DTD SVG 1.1//EN" "http://www.w3.org/Graphics/SVG/1.1/DTD/svg11.dtd">
<svg xmlns="http://www.w3.org/2000/svg" xmlns:xlink="http://www.w3.org/1999/xlink" version="1.1" width="350" height="75" viewBox="0 0 350 75" xml:space="preserve">
<desc>Created with Fabric.js 3.6.6</desc>
<defs>
</defs>
<rect x="0" y="0" width="100%" height="100%" fill="rgba(0, 0, 0, 0)"></rect>
<g transform="matrix(1 0 0 1 90 37.23)"  >
<g style=""   >
		<g transform="matrix(1 0 0 1 -76.19 -20.71)"  >
<path style="stroke: none; stroke-width: 1; stroke-dasharray: none; stroke-linecap: butt; stroke-dashoffset: 0; stroke-linejoin: miter; stroke-miterlimit: 4; fill: rgb(98,192,76); fill-rule: nonzero; opacity: 1;"  transform=" translate(-13.81, -15.29)" d="m 22.036011 8.73999 c -1.695007 -1.622009 -4.257996 -2.452999 -6.46701 -2.452999 c -5.247986 0 -8.677979 3.006008 -8.677979 9.062008 c 0 3.957981 2.168972 8.905003 8.677979 8.905003 c 1.932006 0 3.746001 -0.316013 5.876006 -1.938023 l 0 -4.432981 l -6.587981 0 l 0 -5.14502 l 11.910979 0 l 0 12.069002 c -2.363968 3.405003 -6.152008 5.14603 -11.238975 5.14603 c -10.650023 0 -14.671015 -7.402012 -14.671015 -14.605016 c 0 -7.79599 4.572999 -14.722992 14.710003 -14.722992 c 3.745975 0 7.138 1.030001 10.291997 4.274994 l -3.824005 3.84 l 0 -0.00001 l 0 -0.000001 l 0 0.000001 l 0 0.000001 l 0 0.000001 l 0 0.000001 z" stroke-linecap="round" />
</g>
		<g transform="matrix(1 0 0 1 -44.64 -20.69)"  >
<path style="stroke: none; stroke-width: 1; stroke-dasharray: none; stroke-linecap: butt; stroke-dashoffset: 0; stroke-linejoin: miter; stroke-miterlimit: 4; fill: rgb(98,192,76); fill-rule: nonzero; opacity: 1;"  transform=" translate(-45.36, -15.31)" d="m 57.606995 29.164001 l -6.822998 0 l -7.060013 -9.105011 l -4.457001 0 l 0 9.105011 l -6.152969 0 l 0 -27.707 c 4.495972 0 8.639984 0 13.095978 0 c 6.665009 0 10.214005 4.472988 10.214005 9.34201 c -0.037994 3.60199 -1.104004 6.806 -6.391022 8.707977 l 7.57402 9.181 l 0 0.476013 l 0 0 z m -18.338989 -22.402011 l 0 8.073001 l 7.021011 0 c 2.839996 0 4.061996 -2.136992 4.061996 -3.879005 c -0.040009 -1.899989 -1.264008 -4.193997 -4.141998 -4.193997 l -6.94101 0 l 0 0.000001 z" stroke-linecap="round" />
</g>
		<g transform="matrix(1 0 0 1 49.97 -20.63)"  >
<path style="stroke: none; stroke-width: 1; stroke-dasharray: none; stroke-linecap: butt; stroke-dashoffset: 0; stroke-linejoin: miter; stroke-miterlimit: 4; fill: rgb(98,192,76); fill-rule: nonzero; opacity: 1;"  transform=" translate(-139.97, -15.37)" d="m 143.166016 29.282009 l -6.350006 0 l -11.516022 -27.825008 l 6.902008 0 l 7.769989 20.462009 l 7.77002 -20.462009 l 6.901978 0 l -11.477966 27.825008 z" stroke-linecap="round" />
</g>
		<g transform="matrix(1 0 0 1 79.02 -20.69)"  >
<path style="stroke: none; stroke-width: 1; stroke-dasharray: none; stroke-linecap: butt; stroke-dashoffset: 0; stroke-linejoin: miter; stroke-miterlimit: 4; fill: rgb(98,192,76); fill-rule: nonzero; opacity: 1;"  transform=" translate(-169.02, -15.31)" d="m 179.531982 29.164001 l -21.021973 0 c 0 -9.224003 0 -18.48502 0 -27.707 l 20.469971 0 l 0 5.661011 l -14.435974 0 l 0 5.342987 l 13.609985 0 l 0 5.422001 l -13.609985 0 l 0 5.580021 l 14.987976 0 l 0 5.700989 l 0 0 l 0 -0.000008 z" stroke-linecap="round" />
</g>
		<g transform="matrix(1 0 0 1 -77.85 20.01)"  >
<path style="stroke: none; stroke-width: 1; stroke-dasharray: none; stroke-linecap: butt; stroke-dashoffset: 0; stroke-linejoin: miter; stroke-miterlimit: 4; fill: rgb(255,255,255); fill-rule: nonzero; opacity: 1;"  transform=" translate(-12.15, -56.01)" d="m 18.763 48.886993 c -1.540009 -1.623993 -4.220001 -2.333023 -6.390991 -2.333023 c -2.718994 0 -4.930023 1.145996 -4.930023 3.047997 c 0 2.530014 2.407013 3.006004 5.955017 3.323013 c 5.442993 0.47699 10.610001 2.571007 10.610001 8.984009 c 0 6.173004 -5.681 8.865997 -11.636978 8.904999 c -4.771008 0.040993 -9.741013 -1.821007 -12.067994 -5.697998 l 3.669023 -3.841003 c 2.126967 2.731995 5.638989 3.919014 8.437997 3.919014 c 3.274981 0 5.523001 -1.306 5.523001 -3.285004 c 0.039993 -2.334976 -1.814987 -3.402008 -5.561996 -3.721008 c -5.837021 -0.553986 -11.042999 -2.018997 -10.963989 -8.549011 c 0.038986 -5.501976 5.245987 -8.431 10.923981 -8.431 c 4.262011 0 7.456009 0.951019 10.295 4.275024 l -3.862001 3.403992 l -0.000031 0 l -0.000032 0.000015 l 0 -0.000015 l 0.000015 0 l 0.000002 0 z" stroke-linecap="round" />
</g>
		<g transform="matrix(1 0 0 1 -50.04 20.09)"  >
<path style="stroke: none; stroke-width: 1; stroke-dasharray: none; stroke-linecap: butt; stroke-dashoffset: 0; stroke-linejoin: miter; stroke-miterlimit: 4; fill: rgb(255,255,255); fill-rule: nonzero; opacity: 1;"  transform=" translate(-39.96, -56.09)" d="m 52.640015 66.539001 c -2.841003 2.810997 -6.51001 4.076996 -10.610031 4.076996 c -10.530991 0 -14.710999 -6.80899 -14.751968 -14.366997 c -0.037979 -7.164001 4.615997 -14.684998 14.751968 -14.684998 c 3.785004 0 7.297012 1.46701 10.137039 4.275986 l -3.86702 3.840004 c -1.654984 -1.625 -4.061996 -2.298004 -6.27002 -2.298004 c -6.27095 0 -8.717972 4.869019 -8.677979 8.907013 c 0.039978 4.036011 2.209991 8.627991 8.677979 8.627991 c 2.208023 0 5.126999 -0.98999 6.784012 -2.651993 l 3.826019 4.273987 l 0 -0.000015 l 0 0.000015 l 0 0.000023 l 0 -0.000008 z" stroke-linecap="round" />
</g>
		<g transform="matrix(1 0 0 1 -20.82 20.05)"  >
<path style="stroke: none; stroke-width: 1; stroke-dasharray: none; stroke-linecap: butt; stroke-dashoffset: 0; stroke-linejoin: miter; stroke-miterlimit: 4; fill: rgb(255,255,255); fill-rule: nonzero; opacity: 1;"  transform=" translate(-69.18, -56.05)" d="m 81.427002 69.903023 l -6.821991 0 l -7.062012 -9.104004 l -4.457001 0 l 0 9.104004 l -6.151001 0 l 0 -27.705994 c 4.496002 0 8.638 0 13.095001 0 c 6.666016 0 10.214996 4.475014 10.214996 9.34201 c -0.039001 3.60199 -1.10498 6.807983 -6.389969 8.707977 l 7.571991 9.181 l 0 0.475014 l -0.000015 -0.000008 z m -18.341003 -22.402023 l 0 8.075012 l 7.022003 0 c 2.839996 0 4.062012 -2.136024 4.062012 -3.878998 c -0.041031 -1.899025 -1.262024 -4.196014 -4.141022 -4.196014 l -6.942993 0 z" stroke-linecap="round" />
</g>
		<g transform="matrix(1 0 0 1 0.01 20.05)"  >
<path style="stroke: none; stroke-width: 1; stroke-dasharray: none; stroke-linecap: butt; stroke-dashoffset: 0; stroke-linejoin: miter; stroke-miterlimit: 4; fill: rgb(255,255,255); fill-rule: nonzero; opacity: 1;"  transform=" translate(-90, -56.05)" d="m 86.946014 69.903023 l 0 -27.705994 l 6.110992 0 l 0 27.705994 l -6.110992 0 z" stroke-linecap="round" />
</g>
		<g transform="matrix(1 0 0 1 22.13 20.05)"  >
<path style="stroke: none; stroke-width: 1; stroke-dasharray: none; stroke-linecap: butt; stroke-dashoffset: 0; stroke-linejoin: miter; stroke-miterlimit: 4; fill: rgb(255,255,255); fill-rule: nonzero; opacity: 1;"  transform=" translate(-112.14, -56.05)" d="m 113.729004 42.196991 c 5.246002 0 9.584991 2.375 9.584991 7.520996 c 0 2.294014 -1.026001 4.433014 -3.669006 5.659004 c 3.511017 1.266998 4.969025 4.827995 4.378021 8.034996 c -0.826996 4.471024 -4.533997 6.48999 -10.059021 6.48999 c -4.455994 0 -9.343994 0 -13.843002 0 l 0 -27.705986 l 13.608017 0 l 0 0.001007 l 0 -0.000008 z m -7.57402 10.769012 l 7.49501 0 c 2.407013 0 3.58902 -0.991005 3.58902 -2.613014 c 0 -1.622986 -1.183014 -2.809998 -3.511017 -2.809998 l -7.573013 0 l 0 5.422997 l 0 0.000023 l 0 -0.000008 z m 0 11.553986 l 7.573013 0 c 2.763 0 4.063995 -1.226006 4.063995 -3.164001 c 0 -1.938995 -1.42099 -3.243988 -4.143005 -3.243988 c -2.444977 0 -5.049988 0 -7.49501 0 l 0 6.40799 l 0.001007 0 z" stroke-linecap="round" />
</g>
		<g transform="matrix(1 0 0 1 50.22 20.05)"  >
<path style="stroke: none; stroke-width: 1; stroke-dasharray: none; stroke-linecap: butt; stroke-dashoffset: 0; stroke-linejoin: miter; stroke-miterlimit: 4; fill: rgb(255,255,255); fill-rule: nonzero; opacity: 1;"  transform=" translate(-140.22, -56.05)" d="m 150.72699 69.903023 l -21.020996 0 c 0 -9.222992 0 -18.483002 0 -27.705994 l 20.468994 0 l 0 5.660004 l -14.434998 0 l 0 5.343987 l 13.606995 0 l 0 5.42099 l -13.606995 0 l 0 5.582001 l 14.987 0 l 0 5.699013 l 0 0 z" stroke-linecap="round" />
</g>
		<g transform="matrix(1 0 0 1 -14.23 -20.64)"  >
<path style="stroke: none; stroke-width: 1; stroke-dasharray: none; stroke-linecap: butt; stroke-dashoffset: 0; stroke-linejoin: miter; stroke-miterlimit: 4; fill: rgb(98,192,76); fill-rule: nonzero; opacity: 1;"  transform=" translate(-75.77, -15.37)" d="m 75.772003 29.95401 c -8.042999 0 -14.582001 -6.54401 -14.582001 -14.585999 c 0 -8.043005 6.539001 -14.583012 14.582001 -14.583012 c 8.041992 0 14.583984 6.541019 14.583984 14.583012 c 0 8.040989 -6.541992 14.585999 -14.583984 14.585999 z m 0.002991 -23.348019 c -4.833008 0 -8.761993 3.929989 -8.761993 8.765007 c 0 4.82999 3.929993 8.758003 8.761993 8.758003 c 4.829987 0 8.76001 -3.92902 8.76001 -8.758003 c 0 -4.833008 -3.931 -8.765007 -8.76001 -8.765007 z" stroke-linecap="round" />
</g>
		<g transform="matrix(1 0 0 1 19.74 -20.64)"  >
<path style="stroke: none; stroke-width: 1; stroke-dasharray: none; stroke-linecap: butt; stroke-dashoffset: 0; stroke-linejoin: miter; stroke-miterlimit: 4; fill: rgb(98,192,76); fill-rule: nonzero; opacity: 1;"  transform=" translate(-109.74, -15.37)" d="m 109.739014 29.95401 c -8.041992 0 -14.582001 -6.54401 -14.582001 -14.585999 c 0 -8.043005 6.540009 -14.583012 14.582001 -14.583012 c 8.044006 0 14.583008 6.541019 14.583008 14.583012 c -0.000031 8.040989 -6.540009 14.585999 -14.583008 14.585999 z m 0.003998 -23.348019 c -4.833008 0 -8.761993 3.929989 -8.761993 8.765007 c 0 4.82999 3.929993 8.758003 8.761993 8.758003 c 4.830994 0 8.759003 -3.92902 8.759003 -8.758003 c 0 -4.833008 -3.929016 -8.765007 -8.759003 -8.765007 z" stroke-linecap="round" />
</g>
</g>
</g>
<g transform="matrix(2.23 0 0 2.14 276.59 17.43)" style=""  >
		<text xml:space="preserve" font-family="'Open Sans', sans-serif" font-size="35" font-style="normal" font-weight="normal" style="stroke: none; stroke-width: 1; stroke-dasharray: none; stroke-linecap: butt; stroke-dashoffset: 0; stroke-linejoin: miter; stroke-miterlimit: 4; fill: rgb(255,255,255); fill-rule: nonzero; opacity: 1; white-space: pre;" ><tspan x="-24.01" y="5.65" style="stroke-width: 1; font-family: 'Open Sans', sans-serif; font-size: 18px; font-style: normal; font-weight: bold; fill: rgb(255,255,255); ">NED'S</tspan></text>
</g>
<g transform="matrix(1.3 0 0 1.3 294.92 56.58)" style=""  >
		<text xml:space="preserve" font-family="'Open Sans', sans-serif" font-size="35" font-style="normal" font-weight="bold" style="stroke: none; stroke-width: 1; stroke-dasharray: none; stroke-linecap: butt; stroke-dashoffset: 0; stroke-linejoin: miter; stroke-miterlimit: 4; fill: rgb(171,208,180); fill-rule: nonzero; opacity: 1; white-space: pre;" ><tspan x="-55.1" y="10.99" style="stroke-width: 1; font-family: 'Open Sans', sans-serif; font-size: 30px; font-weight: bold; fill: rgb(84,202,68); ">MOD</tspan><tspan x="19.27" y="10.99" style="white-space: pre; ">  </tspan></text>
</g>
<g transform="matrix(1.14 0 0 1.14 204.27 37.57)"  >
<line style="stroke: rgb(255,255,255); stroke-width: 6; stroke-dasharray: none; stroke-linecap: butt; stroke-dashoffset: 0; stroke-linejoin: miter; stroke-miterlimit: 4; fill: rgb(0,0,0); fill-rule: nonzero; opacity: 1;"  x1="0" y1="-30.844592538869584" x2="0" y2="30.844592538869584" />
</g>
</svg>